<?xml version="1.0" encoding="utf-8"?>
<!-- Generator: Adobe Illustrator 22.0.1, SVG Export Plug-In . SVG Version: 6.00 Build 0)  -->
<svg version="1.1" id="SmartPACK_x2B_" xmlns="http://www.w3.org/2000/svg" xmlns:xlink="http://www.w3.org/1999/xlink" x="0px"
	 y="0px" viewBox="0 0 193.3 41.5" style="enable-background:new 0 0 193.3 41.5;" xml:space="preserve">
<style type="text/css">
	.st0{fill:#FFFFFF;}
</style>
<g>
	<g>
		<path class="st0" d="M14.5,4.8C12.2,4.3,10.5,4.1,9,4.1c-2.2,0-3.5,0.8-3.5,2.3c0,1.3,0.9,2.2,3.8,3.8c4.6,2.5,6.4,4.8,6.4,8.1
			c0,4.2-3.3,7-8.3,7c-2.1,0-5.2-0.3-7.4-0.7v-4.5c2.7,0.7,5.1,1,6.8,1c2.4,0,3.7-0.8,3.7-2.4c0-1.6-1.1-2.8-4.3-4.6
			c-4.3-2.5-5.9-4.5-5.9-7.6c0-4.2,3-6.6,8.1-6.6c2,0,3.8,0.2,6.2,0.6V4.8z"/>
		<path class="st0" d="M29.8,13c0-1.4-0.4-2-1.3-2c-1.2,0-2.2,0.9-4.9,4.4V25h-4.7V6.7h4.7v1.7c0,0.8,0,1.5-0.2,2.2l0.1,0
			c2.6-3.3,4.3-4.4,6.6-4.4c2.6,0,4.1,1.5,4.3,4.3l0,0c2.6-3.3,4.3-4.4,6.7-4.4c2.8,0,4.3,1.8,4.3,5.2V25h-4.7V13c0-1.4-0.4-2-1.3-2
			c-1.2,0-2.2,0.9-4.9,4.4V25h-4.7V13z"/>
		<path class="st0" d="M59.8,21.5c-1.6,2.7-3.4,3.9-5.7,3.9c-3.1,0-5.1-2.1-5.1-5.6c0-3.8,2.5-6,6.7-6c0.9,0,2.5,0.1,4,0.3v-0.9
			c0-1.8-1.2-2.7-3.4-2.7c-1.6,0-3,0.4-6,1.4V7.3c3.1-0.8,4.7-1,6.8-1c4.9,0,7.3,2,7.3,6V25h-4.7v-1.7c0-0.6,0.1-1.3,0.2-1.8
			L59.8,21.5z M56.8,17.3C55,17.3,54,18,54,19.5c0,1,0.7,1.7,1.7,1.7c1.5,0,3-1.5,3.8-3.7C58.7,17.4,57.5,17.3,56.8,17.3z"/>
		<path class="st0" d="M73.4,10.4c1.3-2.5,3.4-4.1,5.6-4.1c0.3,0,0.8,0,1.2,0.1v4.8c-0.5-0.1-1.2-0.1-1.6-0.1
			c-2.1,0-4.1,1.7-5.1,4.3V25h-4.7V6.7h4.7v1.8c0,0.6,0,1-0.2,1.8L73.4,10.4z"/>
		<path class="st0" d="M94.6,25c-1.4,0.3-2.5,0.4-3.8,0.4c-4,0-6-1.8-6-5.6v-9.1h-3.3V6.7h3.3V2.4l4.7-1v5.4h4.9v3.9h-4.9V19
			c0,1.6,0.7,2.3,2.4,2.3c0.8,0,1.7-0.1,2.8-0.3V25z"/>
		<path class="st0" d="M106.9,0.4c4.6,0,7.7,3.1,7.7,7.9c0,4.8-3.3,7.9-8.3,7.9h-3.4V25h-5V0.4H106.9z M105.6,12.3
			c2.3,0,3.7-1.6,3.7-4.1c0-2.4-1.3-3.9-3.3-3.9h-3.1v8H105.6z"/>
		<path class="st0" d="M118.8,25h-5.4l7.9-24.6h5.9L135,25h-5.8l-1.5-5.6h-7.4L118.8,25z M124,5.7l-2.6,9.6h5.2L124,5.7z"/>
		<path class="st0" d="M152.9,24.9c-2,0.3-4.2,0.5-6.3,0.5c-7.5,0-11.1-4.1-11.1-12.3c0-8.5,3.9-13,11.2-13c1.9,0,4,0.2,5.8,0.5v4.2
			c-2.4-0.3-4.1-0.5-5.2-0.5c-4.5,0-6.6,2.9-6.6,8.8c0,5.8,2,8.1,7,8.1c1.5,0,3.6-0.2,5.2-0.5V24.9z"/>
		<path class="st0" d="M155.7,0.4h5V25h-5V0.4z M161.4,13.1c-0.3-0.4-0.4-0.9-0.4-1.3c0-0.5,0.2-0.9,0.5-1.4l6.9-9.9h6.1L166,11.6
			l9.2,13.4h-5.9L161.4,13.1z"/>
		<path class="st0" d="M185.9,22.8h-4.7v-8h-6.8v-4.2h6.8V3.2h4.7v7.5h6.8v4.2h-6.8V22.8z"/>
	</g>
	<g>
		<path class="st0" d="M48.4,39.1l-0.8-2.2c-0.3-0.8-0.8-1.3-1.4-1.3h-0.7v3.5h-1v-7.9H47c1.4,0,2.2,0.8,2.2,2
			c0,0.5-0.2,1.1-0.5,1.4c-0.3,0.4-0.6,0.6-1.2,0.7v0c0.4,0.1,0.9,0.7,1.1,1.5l0.8,2.3H48.4z M46.6,34.8c1,0,1.6-0.5,1.6-1.5
			c0-0.8-0.5-1.3-1.2-1.3h-1.4v2.8H46.6z"/>
		<path class="st0" d="M54.6,38.9c-0.4,0.2-1.1,0.3-1.7,0.3c-1.6,0-2.5-1.1-2.5-3.1c0-1.9,1.1-3.1,2.7-3.1c1.2,0,1.8,0.6,1.8,1.6
			c0,1.1-0.8,1.7-2.2,1.7h-1.4c0.1,0.9,0.2,1.3,0.6,1.7c0.3,0.2,0.6,0.4,1,0.4c0.5,0,1.1-0.1,1.5-0.3V38.9z M52.8,35.6
			c0.7,0,1.1-0.4,1.1-0.9c0-0.5-0.4-0.9-0.9-0.9c-0.5,0-0.9,0.3-1.3,0.7c-0.3,0.3-0.4,0.6-0.4,1.1H52.8z"/>
		<path class="st0" d="M58.4,39.1c-0.2,0-0.5,0-0.7,0c-0.9,0-1.4-0.5-1.4-1.4v-7.1h0.9v6.9c0,0.6,0.2,0.8,0.7,0.8c0.2,0,0.3,0,0.4,0
			V39.1z"/>
		<path class="st0" d="M60.7,31.5c0,0.4-0.3,0.7-0.7,0.7c-0.4,0-0.7-0.3-0.7-0.7c0-0.4,0.3-0.7,0.7-0.7S60.7,31.1,60.7,31.5z
			 M59.6,39.1v-5.9h0.9v5.9H59.6z"/>
		<path class="st0" d="M65.5,39.1v-0.5c0-0.3,0.1-0.7,0.1-1l0,0c-0.4,0.9-1.4,1.7-2.2,1.7c-0.9,0-1.5-0.7-1.5-1.7
			c0-1.2,0.7-1.9,2-1.9c0.3,0,0.6,0,1.5,0.1v-0.5c0-0.9-0.4-1.3-1.3-1.3c-0.5,0-1,0.1-1.8,0.4v-0.9c0.7-0.2,1.4-0.4,2-0.4
			c1.3,0,2.1,0.7,2.1,2v4H65.5z M64.2,36.4c-0.8,0-1.1,0.3-1.1,1.1c0,0.6,0.3,0.9,0.7,0.9c0.6,0,1.4-0.8,1.8-1.9
			C64.9,36.4,64.4,36.4,64.2,36.4z"/>
		<path class="st0" d="M69.2,30.7v2.8c0,0.4,0,0.7-0.1,1l0,0c0.5-0.9,1.4-1.4,2-1.4c1.1,0,1.8,1.1,1.8,2.9c0,2.1-0.9,3.2-2.7,3.2
			c-0.6,0-1.3-0.1-2.1-0.2v-8.3H69.2z M69.2,38.2c0.5,0.1,1,0.2,1.2,0.2c1.1,0,1.7-0.9,1.7-2.4c0-1.3-0.4-2-1-2
			c-0.6,0-1.4,0.7-1.9,1.6V38.2z"/>
		<path class="st0" d="M75.7,31.5c0,0.4-0.3,0.7-0.7,0.7c-0.4,0-0.7-0.3-0.7-0.7c0-0.4,0.3-0.7,0.7-0.7
			C75.4,30.8,75.7,31.1,75.7,31.5z M74.5,39.1v-5.9h0.9v5.9H74.5z"/>
		<path class="st0" d="M79.4,39.1c-0.2,0-0.5,0-0.7,0c-0.9,0-1.4-0.5-1.4-1.4v-7.1h0.9v6.9c0,0.6,0.2,0.8,0.7,0.8c0.2,0,0.3,0,0.4,0
			V39.1z"/>
		<path class="st0" d="M81.7,31.5c0,0.4-0.3,0.7-0.7,0.7c-0.4,0-0.7-0.3-0.7-0.7c0-0.4,0.3-0.7,0.7-0.7
			C81.4,30.8,81.7,31.1,81.7,31.5z M80.6,39.1v-5.9h0.9v5.9H80.6z"/>
		<path class="st0" d="M86.5,39.1c-0.4,0.1-0.8,0.2-1.1,0.2c-1,0-1.6-0.6-1.6-1.6V34h-1.1v-0.8h1.1v-1.5l0.9-0.2v1.7h1.7V34h-1.7
			v3.5c0,0.7,0.2,0.9,0.8,0.9c0.3,0,0.6,0,1-0.2V39.1z"/>
		<path class="st0" d="M90.2,39.5c-0.4,1-0.6,1.3-1,1.6c-0.4,0.3-0.8,0.4-1.4,0.4c-0.2,0-0.4,0-0.6,0v-0.8c0.2,0,0.4,0,0.5,0
			c0.8,0,1.3-0.4,1.6-1.4L87,33.2h1.1l1.7,4.9l1.8-4.9h1L90.2,39.5z"/>
		<path class="st0" d="M94.2,38.5c0,0.4-0.3,0.7-0.7,0.7c-0.4,0-0.7-0.3-0.7-0.7c0-0.4,0.3-0.7,0.7-0.7
			C93.9,37.8,94.2,38.1,94.2,38.5z"/>
		<path class="st0" d="M101.1,32v7.1h-1V32h-2.2v-0.8h5.5V32H101.1z"/>
		<path class="st0" d="M107.5,38.9c-0.4,0.2-1.1,0.3-1.7,0.3c-1.6,0-2.5-1.1-2.5-3.1c0-1.9,1.1-3.1,2.7-3.1c1.2,0,1.8,0.6,1.8,1.6
			c0,1.1-0.8,1.7-2.2,1.7h-1.4c0.1,0.9,0.2,1.3,0.6,1.7c0.3,0.2,0.6,0.4,1,0.4c0.5,0,1.1-0.1,1.5-0.3V38.9z M105.8,35.6
			c0.7,0,1.1-0.4,1.1-0.9c0-0.5-0.4-0.9-0.9-0.9c-0.5,0-0.9,0.3-1.3,0.7c-0.3,0.3-0.4,0.6-0.4,1.1H105.8z"/>
		<path class="st0" d="M113,39c-0.6,0.2-1.1,0.2-1.7,0.2c-0.9,0-1.6-0.4-2-1.1c-0.3-0.5-0.5-1.3-0.5-2c0-1.9,1-3,2.6-3
			c0.5,0,1.1,0.1,1.5,0.2v0.8c-0.4-0.1-1.1-0.2-1.5-0.2c-1,0-1.6,0.8-1.6,2.2c0,1.5,0.6,2.3,1.7,2.3c0.4,0,1-0.1,1.4-0.3V39z"/>
		<path class="st0" d="M118,39.1v-4c0-0.7-0.2-1.1-0.6-1.1c-0.5,0-1.3,0.7-2.1,1.9v3.2h-0.9v-8.4h0.9v3.1c0,0.3,0,0.7-0.1,1l0,0
			c1-1.3,1.6-1.7,2.3-1.7c0.9,0,1.4,0.6,1.4,1.7v4.4H118z"/>
		<path class="st0" d="M124.5,39.1v-4c0-0.7-0.2-1.1-0.6-1.1c-0.5,0-1.3,0.7-2.1,1.9v3.2h-0.9v-5.9h0.9v0.6c0,0.3,0,0.7-0.1,1l0,0
			c1-1.3,1.6-1.7,2.3-1.7c0.9,0,1.4,0.6,1.4,1.7v4.4H124.5z"/>
		<path class="st0" d="M132,36c0,2-1,3.2-2.6,3.2c-1.6,0-2.5-1.1-2.5-3.1c0-1.9,1-3.1,2.6-3.1C131,33.1,132,34.2,132,36z
			 M127.8,36.1c0,1.4,0.6,2.3,1.6,2.3c1,0,1.6-0.9,1.6-2.4c0-1.3-0.6-2.2-1.6-2.2C128.5,33.8,127.8,34.7,127.8,36.1z"/>
		<path class="st0" d="M135.5,39.1c-0.2,0-0.5,0-0.7,0c-0.9,0-1.4-0.5-1.4-1.4v-7.1h0.9v6.9c0,0.6,0.2,0.8,0.7,0.8
			c0.2,0,0.3,0,0.4,0V39.1z"/>
		<path class="st0" d="M141.4,36c0,2-1,3.2-2.6,3.2c-1.6,0-2.5-1.1-2.5-3.1c0-1.9,1-3.1,2.6-3.1C140.4,33.1,141.4,34.2,141.4,36z
			 M137.2,36.1c0,1.4,0.6,2.3,1.6,2.3c1,0,1.6-0.9,1.6-2.4c0-1.3-0.6-2.2-1.6-2.2C137.9,33.8,137.2,34.7,137.2,36.1z"/>
		<path class="st0" d="M147.3,39.3c0,1.4-0.9,2.2-2.4,2.2c-0.5,0-1.4-0.1-2-0.2v-0.8c0.8,0.1,1.3,0.2,1.7,0.2c1.2,0,1.8-0.4,1.8-1.4
			v-0.7c0-0.3,0-0.5,0.1-0.9l0,0c-0.5,0.9-1.4,1.4-2,1.4c-1.1,0-1.8-1.1-1.8-2.9c0-2.1,0.9-3.2,2.7-3.2c0.6,0,1.2,0.1,2.1,0.2V39.3z
			 M146.3,34.1c-0.6-0.1-1-0.2-1.2-0.2c-1.1,0-1.6,0.9-1.6,2.4c0,1.3,0.4,2,1,2c0.5,0,1.4-0.7,1.9-1.6V34.1z"/>
		<path class="st0" d="M151.5,39.5c-0.4,1-0.6,1.3-1,1.6c-0.4,0.3-0.8,0.4-1.4,0.4c-0.2,0-0.4,0-0.6,0v-0.8c0.2,0,0.4,0,0.5,0
			c0.8,0,1.3-0.4,1.6-1.4l-2.4-6.1h1.1l1.7,4.9l1.8-4.9h1L151.5,39.5z"/>
		<path class="st0" d="M155.5,38.5c0,0.4-0.3,0.7-0.7,0.7c-0.4,0-0.7-0.3-0.7-0.7c0-0.4,0.3-0.7,0.7-0.7
			C155.2,37.8,155.5,38.1,155.5,38.5z"/>
		<path class="st0" d="M160.8,37l-0.6,2.1h-1.1l2.5-7.9h1.3l2.5,7.9h-1.1l-0.6-2.1H160.8z M163.6,36.2l-1.2-4.2l-1.3,4.2H163.6z"/>
		<path class="st0" d="M170.3,39c-0.6,0.2-1.1,0.2-1.7,0.2c-0.9,0-1.6-0.4-2-1.1c-0.3-0.5-0.5-1.3-0.5-2c0-1.9,1-3,2.6-3
			c0.5,0,1.1,0.1,1.5,0.2v0.8c-0.4-0.1-1.1-0.2-1.5-0.2c-1,0-1.6,0.8-1.6,2.2c0,1.5,0.6,2.3,1.7,2.3c0.4,0,1-0.1,1.4-0.3V39z"/>
		<path class="st0" d="M175.3,39c-0.6,0.2-1.1,0.2-1.7,0.2c-0.9,0-1.6-0.4-2-1.1c-0.3-0.5-0.5-1.3-0.5-2c0-1.9,1-3,2.6-3
			c0.5,0,1.1,0.1,1.5,0.2v0.8c-0.4-0.1-1.1-0.2-1.5-0.2c-1,0-1.6,0.8-1.6,2.2c0,1.5,0.6,2.3,1.7,2.3c0.4,0,1-0.1,1.4-0.3V39z"/>
		<path class="st0" d="M180.3,38.9c-0.4,0.2-1.1,0.3-1.7,0.3c-1.6,0-2.5-1.1-2.5-3.1c0-1.9,1.1-3.1,2.7-3.1c1.2,0,1.8,0.6,1.8,1.6
			c0,1.1-0.8,1.7-2.2,1.7h-1.4c0.1,0.9,0.2,1.3,0.6,1.7c0.3,0.2,0.6,0.4,1,0.4c0.5,0,1.1-0.1,1.5-0.3V38.9z M178.6,35.6
			c0.7,0,1.1-0.4,1.1-0.9c0-0.5-0.4-0.9-0.9-0.9c-0.5,0-0.9,0.3-1.3,0.7c-0.3,0.3-0.4,0.6-0.4,1.1H178.6z"/>
		<path class="st0" d="M185.4,34c-0.6-0.1-1.2-0.2-1.5-0.2c-0.7,0-1.1,0.3-1.1,0.7c0,0.4,0.3,0.7,1.2,1.1c1.3,0.6,1.7,1.1,1.7,1.9
			c0,1-0.8,1.7-2,1.7c-0.6,0-1.3-0.1-1.9-0.3v-0.9c0.7,0.2,1.5,0.3,1.9,0.3c0.6,0,1-0.3,1-0.8c0-0.4-0.3-0.7-1.2-1.1
			c-1.2-0.6-1.7-1.1-1.7-1.9c0-1,0.8-1.6,2-1.6c0.5,0,1.2,0.1,1.6,0.2V34z"/>
		<path class="st0" d="M190.3,34c-0.6-0.1-1.2-0.2-1.5-0.2c-0.7,0-1.1,0.3-1.1,0.7c0,0.4,0.3,0.7,1.2,1.1c1.3,0.6,1.7,1.1,1.7,1.9
			c0,1-0.8,1.7-2,1.7c-0.6,0-1.3-0.1-1.9-0.3v-0.9c0.7,0.2,1.5,0.3,1.9,0.3c0.6,0,1-0.3,1-0.8c0-0.4-0.3-0.7-1.2-1.1
			c-1.2-0.6-1.7-1.1-1.7-1.9c0-1,0.8-1.6,2-1.6c0.5,0,1.2,0.1,1.6,0.2V34z"/>
		<path class="st0" d="M193.3,38.5c0,0.4-0.3,0.7-0.7,0.7c-0.4,0-0.7-0.3-0.7-0.7c0-0.4,0.3-0.7,0.7-0.7
			C193,37.8,193.3,38.1,193.3,38.5z"/>
	</g>
</g>
</svg>
