<svg id="EasiPak" xmlns="http://www.w3.org/2000/svg" viewBox="0 0 148.72 42.95"><defs><style>.cls-1{fill:#fff;}</style></defs><title>16630_b_rad_easipak_logo_KO</title><path class="cls-1" d="M30.5,1.84H45V5.93H35.46v5.65h8.82v4.05H35.46v6.66h10v4.12h-15Z"/><path class="cls-1" d="M59,22.94c-1.63,2.67-3.44,3.87-5.72,3.87-3.15,0-5.07-2.14-5.07-5.61,0-3.8,2.46-6,6.73-6,.91,0,2.46.11,4,.26v-.94c0-1.78-1.2-2.75-3.37-2.75-1.55,0-3,.36-6,1.41V8.79a26.27,26.27,0,0,1,6.77-1c4.88,0,7.27,2,7.27,6V26.41H59V24.75A9.18,9.18,0,0,1,59.18,23Zm-3-4.24c-1.85,0-2.79.76-2.79,2.21A1.59,1.59,0,0,0,55,22.61c1.52,0,3-1.48,3.83-3.69A26.89,26.89,0,0,0,56.07,18.7Z"/><path class="cls-1" d="M79.77,12.23a26.51,26.51,0,0,0-5-.62c-1.66,0-2.46.44-2.46,1.34s.73,1.38,2.86,2.24c4,1.6,5.57,3.26,5.57,6,0,3.55-2.6,5.61-7.2,5.61A26.61,26.61,0,0,1,67.25,26V21.71a22.47,22.47,0,0,0,6.08,1.12c1.48,0,2.31-.51,2.31-1.41s-.72-1.38-2.89-2.28c-4-1.67-5.5-3.29-5.5-5.93,0-3.59,2.43-5.43,7.09-5.43a31.06,31.06,0,0,1,5.43.47Z"/><path class="cls-1" d="M89.41,3.08a3.1,3.1,0,1,1-6.19,0,3.1,3.1,0,0,1,6.19,0ZM84,8.18h4.7V26.41H84Z"/><path class="cls-1" d="M102.22,1.84C106.85,1.84,110,5,110,9.7s-3.25,7.92-8.28,7.92H98.31v8.79h-5V1.84ZM101,13.75c2.28,0,3.72-1.56,3.72-4.05s-1.33-3.95-3.32-3.95H98.31v8Z"/><path class="cls-1" d="M122.35,22.94c-1.63,2.67-3.44,3.87-5.72,3.87-3.14,0-5.06-2.14-5.06-5.61,0-3.8,2.46-6,6.73-6,.9,0,2.46.11,4,.26v-.94c0-1.78-1.19-2.75-3.36-2.75-1.56,0-3,.36-6,1.41V8.79a26.27,26.27,0,0,1,6.77-1c4.88,0,7.27,2,7.27,6V26.41h-4.71V24.75A9.16,9.16,0,0,1,122.5,23Zm-3-4.24c-1.84,0-2.78.76-2.78,2.21a1.58,1.58,0,0,0,1.73,1.7c1.52,0,3-1.48,3.84-3.69A27.28,27.28,0,0,0,119.38,18.7Z"/><path class="cls-1" d="M131.26.36H136V26.41h-4.7Zm5.64,18.49a3.36,3.36,0,0,1-.65-1.92,3.15,3.15,0,0,1,.65-1.88L142,8.18h6.12l-7.31,8.68,7.42,9.55h-6Z"/><path class="cls-1" d="M3.84,40.53l-.76-2.21C2.79,37.48,2.29,37,1.71,37H1v3.52H0v-8H2.46a2,2,0,0,1,2.23,2.05,2.3,2.3,0,0,1-.45,1.43A2.11,2.11,0,0,1,3,36.77v0a2.38,2.38,0,0,1,1.1,1.45l.8,2.28ZM2.06,36.24a1.41,1.41,0,0,0,1.6-1.49,1.19,1.19,0,0,0-1.24-1.33H1v2.82Z"/><path class="cls-1" d="M10,40.34a4.43,4.43,0,0,1-1.69.32c-1.57,0-2.49-1.14-2.49-3.08S6.91,34.5,8.56,34.5c1.19,0,1.85.58,1.85,1.61S9.6,37.8,8.22,37.8H6.83a2.23,2.23,0,0,0,.63,1.68,1.54,1.54,0,0,0,1,.35A3.94,3.94,0,0,0,10,39.5ZM8.29,37.07c.71,0,1.15-.35,1.15-.93a.84.84,0,0,0-.91-.88A1.67,1.67,0,0,0,7.25,36a1.83,1.83,0,0,0-.41,1.12Z"/><path class="cls-1" d="M13.81,40.55a3.88,3.88,0,0,1-.66.05,1.25,1.25,0,0,1-1.41-1.41V32.1h.94V39c0,.61.16.78.7.78l.43,0Z"/><path class="cls-1" d="M16.17,32.9a.66.66,0,1,1-.67-.66A.67.67,0,0,1,16.17,32.9ZM15,40.53v-5.9H16v5.9Z"/><path class="cls-1" d="M21,40.53V40a5,5,0,0,1,.14-1h0a2.74,2.74,0,0,1-2.15,1.66c-.9,0-1.47-.66-1.47-1.73s.71-1.86,2-1.86a13.9,13.9,0,0,1,1.5.11v-.53c0-.93-.39-1.33-1.31-1.33a5.64,5.64,0,0,0-1.83.42v-.89a6.65,6.65,0,0,1,2-.35,1.84,1.84,0,0,1,2.07,2v4ZM19.6,37.82c-.78,0-1.15.33-1.15,1.06,0,.56.26.93.67.93.64,0,1.44-.82,1.84-1.89A13,13,0,0,0,19.6,37.82Z"/><path class="cls-1" d="M24.67,32.1v2.8a6.51,6.51,0,0,1-.06,1h.05a2.81,2.81,0,0,1,2-1.43c1.13,0,1.79,1.08,1.79,2.94,0,2.12-.91,3.22-2.67,3.22a10.46,10.46,0,0,1-2.08-.25V32.1Zm0,7.55a6.38,6.38,0,0,0,1.2.19c1.06,0,1.65-.85,1.65-2.39,0-1.27-.37-2.05-1-2.05s-1.4.74-1.89,1.64Z"/><path class="cls-1" d="M31.1,32.9a.66.66,0,1,1-.66-.66A.66.66,0,0,1,31.1,32.9ZM30,40.53v-5.9h.93v5.9Z"/><path class="cls-1" d="M34.8,40.55a3.92,3.92,0,0,1-.67.05,1.24,1.24,0,0,1-1.4-1.41V32.1h.94V39c0,.61.16.78.7.78l.43,0Z"/><path class="cls-1" d="M37.16,32.9a.67.67,0,0,1-.67.67.67.67,0,0,1,0-1.33A.67.67,0,0,1,37.16,32.9ZM36,40.53v-5.9H37v5.9Z"/><path class="cls-1" d="M41.91,40.51a5,5,0,0,1-1.15.15A1.43,1.43,0,0,1,39.21,39v-3.6H38.09v-.8h1.12V33.18l.93-.23v1.68H41.8v.8H40.14v3.49c0,.66.22.92.8.92a3.53,3.53,0,0,0,1-.15Z"/><path class="cls-1" d="M45.67,40.92c-.39,1-.56,1.31-1,1.61a2.14,2.14,0,0,1-1.38.42c-.17,0-.44,0-.62,0V42.1l.52,0c.84,0,1.25-.35,1.6-1.38l-2.35-6.11h1.07l1.74,4.91,1.79-4.91h1Z"/><path class="cls-1" d="M49.63,39.93a.72.72,0,1,1-.72-.71A.71.71,0,0,1,49.63,39.93Z"/><path class="cls-1" d="M56.56,33.43v7.1h-1v-7.1H53.33v-.85h5.48v.85Z"/><path class="cls-1" d="M63,40.34a4.43,4.43,0,0,1-1.69.32c-1.57,0-2.49-1.14-2.49-3.08s1.06-3.08,2.71-3.08c1.19,0,1.85.58,1.85,1.61s-.81,1.69-2.19,1.69H59.75a2.23,2.23,0,0,0,.63,1.68,1.54,1.54,0,0,0,1,.35A3.94,3.94,0,0,0,63,39.5Zm-1.74-3.27c.71,0,1.15-.35,1.15-.93a.84.84,0,0,0-.91-.88,1.67,1.67,0,0,0-1.28.69,1.83,1.83,0,0,0-.41,1.12Z"/><path class="cls-1" d="M68.46,40.41a5.72,5.72,0,0,1-1.66.25,2.13,2.13,0,0,1-2-1.08,4.14,4.14,0,0,1-.47-2c0-1.86,1-3,2.56-3a6.58,6.58,0,0,1,1.55.21v.83a7,7,0,0,0-1.5-.23c-1,0-1.63.84-1.63,2.21s.62,2.32,1.75,2.32a5.13,5.13,0,0,0,1.41-.27Z"/><path class="cls-1" d="M73.44,40.53V36.48c0-.74-.2-1.08-.63-1.08s-1.34.74-2.12,1.91v3.22h-.94V32.1h.94v3.13a7.82,7.82,0,0,1-.06,1h.05c1-1.25,1.6-1.72,2.33-1.72s1.36.6,1.36,1.67v4.36Z"/><path class="cls-1" d="M79.9,40.53V36.48c0-.74-.19-1.08-.63-1.08s-1.33.74-2.12,1.91v3.22h-.93v-5.9h.93v.6c0,.28,0,.72-.05,1h0c1-1.25,1.61-1.72,2.33-1.72.88,0,1.37.6,1.37,1.67v4.36Z"/><path class="cls-1" d="M87.43,37.44c0,2-1,3.22-2.61,3.22s-2.53-1.11-2.53-3.08,1-3.08,2.59-3.08S87.43,35.62,87.43,37.44Zm-4.16.12c0,1.43.6,2.3,1.57,2.3s1.6-.91,1.6-2.36-.62-2.21-1.57-2.21S83.27,36.19,83.27,37.56Z"/><path class="cls-1" d="M91,40.55a4.07,4.07,0,0,1-.67.05,1.24,1.24,0,0,1-1.4-1.41V32.1h.93V39c0,.61.17.78.7.78l.44,0Z"/><path class="cls-1" d="M96.83,37.44c0,2-1,3.22-2.61,3.22s-2.52-1.11-2.52-3.08,1-3.08,2.58-3.08S96.83,35.62,96.83,37.44Zm-4.15.12c0,1.43.6,2.3,1.57,2.3s1.6-.91,1.6-2.36-.62-2.21-1.58-2.21S92.68,36.19,92.68,37.56Z"/><path class="cls-1" d="M102.7,40.79c0,1.36-.91,2.16-2.44,2.16a16,16,0,0,1-2-.16V42a11.65,11.65,0,0,0,1.75.19c1.19,0,1.75-.44,1.75-1.36v-.7a5,5,0,0,1,.06-.86h0a2.79,2.79,0,0,1-2,1.43c-1.14,0-1.79-1.08-1.79-2.94,0-2.12.91-3.22,2.66-3.22a10.14,10.14,0,0,1,2.09.25Zm-.94-5.28a6.35,6.35,0,0,0-1.2-.19c-1.06,0-1.64.87-1.64,2.39,0,1.29.36,2,1,2s1.39-.74,1.88-1.64Z"/><path class="cls-1" d="M107,40.92c-.4,1-.56,1.31-1,1.61a2.16,2.16,0,0,1-1.38.42c-.18,0-.45,0-.62,0V42.1l.51,0c.84,0,1.25-.35,1.6-1.38l-2.35-6.11h1.08l1.73,4.91,1.79-4.91h1Z"/><path class="cls-1" d="M110.94,39.93a.72.72,0,0,1-.73.73.72.72,0,0,1,0-1.44A.72.72,0,0,1,110.94,39.93Z"/><path class="cls-1" d="M116.27,38.44l-.62,2.09h-1.07l2.54-8h1.32l2.54,8h-1.12l-.63-2.09Zm2.73-.8-1.24-4.21-1.25,4.21Z"/><path class="cls-1" d="M125.75,40.41a5.77,5.77,0,0,1-1.66.25,2.14,2.14,0,0,1-2-1.08,4.26,4.26,0,0,1-.46-2c0-1.86,1-3,2.56-3a6.43,6.43,0,0,1,1.54.21v.83a6.93,6.93,0,0,0-1.5-.23c-1,0-1.62.84-1.62,2.21s.62,2.32,1.74,2.32a5.2,5.2,0,0,0,1.42-.27Z"/><path class="cls-1" d="M130.73,40.41a5.72,5.72,0,0,1-1.66.25,2.13,2.13,0,0,1-2-1.08,4.14,4.14,0,0,1-.47-2c0-1.86,1-3,2.56-3a6.51,6.51,0,0,1,1.55.21v.83a7,7,0,0,0-1.5-.23c-1,0-1.63.84-1.63,2.21s.62,2.32,1.75,2.32a5.13,5.13,0,0,0,1.41-.27Z"/><path class="cls-1" d="M135.76,40.34a4.44,4.44,0,0,1-1.7.32c-1.56,0-2.48-1.14-2.48-3.08s1.06-3.08,2.71-3.08c1.19,0,1.85.58,1.85,1.61s-.81,1.69-2.19,1.69h-1.4a2.27,2.27,0,0,0,.64,1.68,1.52,1.52,0,0,0,1,.35,3.94,3.94,0,0,0,1.53-.33ZM134,37.07c.71,0,1.14-.35,1.14-.93a.83.83,0,0,0-.9-.88A1.67,1.67,0,0,0,133,36a1.83,1.83,0,0,0-.41,1.12Z"/><path class="cls-1" d="M140.8,35.49a8.51,8.51,0,0,0-1.55-.19c-.69,0-1.07.26-1.07.72s.3.71,1.2,1.09c1.26.57,1.72,1.08,1.72,1.89,0,1-.79,1.66-2,1.66a7.33,7.33,0,0,1-1.91-.27v-.87a9.57,9.57,0,0,0,1.91.3c.62,0,1-.32,1-.76s-.33-.69-1.2-1.09c-1.25-.56-1.72-1.09-1.72-1.89,0-1,.76-1.58,2-1.58a8.77,8.77,0,0,1,1.64.16Z"/><path class="cls-1" d="M145.77,35.49a8.61,8.61,0,0,0-1.55-.19c-.69,0-1.07.26-1.07.72s.3.71,1.2,1.09c1.25.57,1.72,1.08,1.72,1.89,0,1-.79,1.66-2,1.66a7.27,7.27,0,0,1-1.91-.27v-.87a9.57,9.57,0,0,0,1.91.3c.62,0,1-.32,1-.76s-.33-.69-1.21-1.09c-1.24-.56-1.72-1.09-1.72-1.89,0-1,.76-1.58,2-1.58a8.85,8.85,0,0,1,1.64.16Z"/><path class="cls-1" d="M148.72,39.93a.72.72,0,0,1-.73.73.72.72,0,0,1,0-1.44A.72.72,0,0,1,148.72,39.93Z"/></svg>