<?xml version="1.0" encoding="utf-8"?>
<!-- Generator: Adobe Illustrator 22.0.1, SVG Export Plug-In . SVG Version: 6.00 Build 0)  -->
<svg version="1.1" id="bayer_cross" xmlns="http://www.w3.org/2000/svg" xmlns:xlink="http://www.w3.org/1999/xlink" x="0px"
	 y="0px" viewBox="0 0 283.5 283.5" style="enable-background:new 0 0 283.5 283.5;" xml:space="preserve">
<style type="text/css">
	.st0{fill:#FFFFFF;}
</style>
<path class="st0" d="M133.2,42.2h16.5c1.8,0,3.3-1.5,3.3-3.3c0-1.8-1.5-3.3-3.3-3.3h-16.5V42.2z M133.2,58.3h17
	c2.1,0,3.8-1.7,3.8-3.8c0-2.1-1.7-3.8-3.8-3.8h-17V58.3z M159.7,46.1c2.2,2.2,3.6,5.2,3.6,8.6c0,6.6-5.4,12-12,12h-27.6V27.2l27.1,0
	c6.4,0,11.5,5.2,11.5,11.5C162.4,41.5,161.4,44.1,159.7,46.1z M166,113.9h-10.1l-3.2-6.6h-22.1l-3.2,6.6h-10.1l19.8-39.6h9.2
	L166,113.9z M141.7,84.4l-7,14.4h13.9L141.7,84.4z M155.1,122.4h11.3l-20.1,25.8v13.8H137v-13.8l-20.1-25.8h11.3l13.4,18
	L155.1,122.4z M207.8,122.4v8.5h-26.4v6.6l25.4,0v8.5h-25.4v7.5h26.4v8.5H172v-39.6H207.8z M237.5,146.8h-7.1v15.1H221v-39.6h24.1
	c6.7,0,12.2,5.5,12.2,12.3c0,5.6-3.7,10.3-8.8,11.8l11.6,15.5h-11.3L237.5,146.8z M244.1,130.8h-13.7v7.5h13.7
	c2.1,0,3.7-1.7,3.7-3.8C247.9,132.5,246.2,130.8,244.1,130.8z M121.3,161.9h-10.1l-3.2-6.6H85.8l-3.2,6.6H72.5l19.8-39.6h9.2
	L121.3,161.9z M96.9,132.5l-7,14.4h13.9L96.9,132.5z M37.2,137.5h16.5c1.8,0,3.3-1.5,3.3-3.3c0-1.8-1.5-3.3-3.3-3.3l-16.5,0V137.5z
	 M37.2,153.5h17c2.1,0,3.8-1.7,3.8-3.8c0-2.1-1.7-3.8-3.8-3.8h-17V153.5z M63.7,141.3c2.2,2.2,3.6,5.2,3.6,8.6c0,6.6-5.4,12-12,12
	H27.7v-39.6l27.1,0c6.4,0,11.5,5.2,11.5,11.5C66.4,136.7,65.3,139.3,63.7,141.3z M159.6,170.4v8.5h-26.4v6.6l25.4,0v8.5h-25.4v7.5
	h26.4v8.5h-35.8v-39.6H159.6z M153,231.6c0-2.1-1.7-3.8-3.7-3.8h-16v7.5h16C151.3,235.4,153,233.7,153,231.6z M123.8,259v-39.6h26.4
	c6.7,0,12.2,5.5,12.2,12.3c0,5.1-3.1,9.5-7.6,11.4l11.9,15.9h-11.3L144,243.9h-10.8V259H123.8z M283.5,141.7
	c0,78.3-63.5,141.7-141.7,141.7C63.5,283.5,0,220,0,141.7C0,63.5,63.5,0,141.7,0C220,0,283.5,63.5,283.5,141.7z M141.7,13.1
	c-71,0-128.6,57.6-128.6,128.6c0,71,57.6,128.6,128.6,128.6c71,0,128.6-57.6,128.6-128.6C270.3,70.7,212.8,13.1,141.7,13.1z"/>
</svg>
