<?xml version="1.0" encoding="utf-8"?>
<!-- Generator: Adobe Illustrator 22.0.1, SVG Export Plug-In . SVG Version: 6.00 Build 0)  -->
<svg version="1.1" id="Layer_1" xmlns="http://www.w3.org/2000/svg" xmlns:xlink="http://www.w3.org/1999/xlink" x="0px" y="0px"
	 viewBox="0 0 286 58.9" style="enable-background:new 0 0 286 58.9;" xml:space="preserve">
<style type="text/css">
	.Arched_x0020_Green{fill:url(#SVGID_1_);stroke:#FFFFFF;stroke-width:0.25;stroke-miterlimit:1;}
	.st0{fill:#E86D1F;}
	.st1{fill:#A7A9AC;}
</style>
<linearGradient id="SVGID_1_" gradientUnits="userSpaceOnUse" x1="-255.042" y1="335.0684" x2="-254.3349" y2="334.3613">
	<stop  offset="0" style="stop-color:#20AC4B"/>
	<stop  offset="0.9831" style="stop-color:#19361A"/>
</linearGradient>
<g>
	<g>
		<path class="st0" d="M30.9,5.2c2.2,0,3.8,1.8,3.4,3.9l-0.1,0.6l-2.8,15.8H26l2.7-15.2c0.1-0.5-0.2-0.9-0.8-0.9h-3.5
			c-0.5,0-0.8,0.4-0.9,0.9l-2.7,15.2l-5.4,0l2.7-15.2c0.1-0.5-0.2-0.9-0.7-0.9l0,0l-3.5,0l0,0c-0.5,0-0.8,0.4-0.9,0.9l-2.7,15.2
			l-5.4,0L8.6,5.3l5.2,0l-0.1,0.7c0,0,0.4-0.4,0.9-0.6c0.3-0.1,1.2-0.1,1.2-0.1l14.5,0L30.9,5.2z"/>
		<path class="st0" d="M60.8,9.2c0.4-2.2-1.2-3.9-3.4-3.9H42.2c-2.2,0-4.4,1.8-4.8,3.9l-2.2,12.5c-0.4,2.2,1.2,3.9,3.4,3.9l5.2,0h14
			l0.7-4.2l-16.3,0l-0.7-0.1c-0.5,0-0.8-0.2-0.7-0.7l1.8-10c0.1-0.5,0.4-0.9,0.9-0.9l0.6,0c0,0,4.7,0,7.8,0h2.5
			c0.5,0,0.8,0.2,0.7,0.7l-0.5,2.6c-0.1,0.5-0.5,0.7-1,0.7l-1.4,0c-0.7,0-8.2,0-8.2,0L43.4,18l6.7,0h5.1c2.2,0,4.4-1.8,4.8-3.9
			L60.8,9.2z"/>
		<path class="st0" d="M88.1,9.2c0.4-2.2-1.2-3.9-3.4-3.9h-3.1c-2.3,0-16.7,0-16.7,0l-3.6,20.3h5.2l2.8-16c0,0,7.6,0,10.5,0l1.7,0
			c0.5,0,0.8,0.2,0.7,0.7l-1.8,10.3c-0.1,0.5-0.5,0.7-1,0.7H78c-2.3,0-8.6,0-8.6,0l-0.7,4.2l10.7,0l1.8,0c2.2,0,4.4-1.8,4.8-3.9
			L88.1,9.2z"/>
		<path class="st0" d="M170.7,9.3c0.4-2.2-1.2-3.9-3.4-3.9l-3.1,0c-2.3,0-16.7,0-16.7,0l-3.6,20.3h5.3l2.8-16c0,0,7.6,0,10.5,0
			l1.7,0c0.5,0,0.8,0.2,0.7,0.7l-1.8,10.3c-0.1,0.5-0.5,0.7-1,0.7l-1.5,0c-2.3,0-8.6,0-8.6,0l-0.7,4.2l10.7,0l1.8,0
			c2.2,0,4.4-1.8,4.8-3.9L170.7,9.3z"/>
		<path class="st0" d="M115.7,9.2c0.4-2.2-1.2-3.9-3.4-3.9h-2.2l-17.9,0l-3.6,20.3h5.3l2.8-15.9h9.1l3.4,0c0.5,0,0.8,0.2,0.7,0.7
			l-0.5,2.7c-0.1,0.5-0.5,0.7-1,0.7h-1.8h-8.2L97.8,18l4.7,0l5.1,7.6h5.6l-4.8-7.6l0.8,0h0.9c2.2,0,4.4-1.8,4.8-3.9L115.7,9.2z"/>
		<path class="st0" d="M124.9,21.4c2.5,0,10.6,0,10.6,0s1.2-6.7,1.5-8.8l0.4-2.2c0.1-0.5-0.2-0.7-0.7-0.7l-1.3,0
			c-1.3,0-15.7,0-15.7,0l0.7-4.2c0,0,14.4,0,17,0l2.2,0c2.2,0,3.8,1.8,3.4,3.9l-0.4,2.1c-0.5,2.6-2.5,14.2-2.5,14.2s-14.1,0-16.3,0
			l-3,0c-2.2,0-3.8-1.8-3.4-3.9l0.9-4.9c0.4-2.2,2.6-3.9,4.8-3.9h1.1c1.3,0,10.8,0,10.8,0l-0.7,4.2c0,0-7.2,0-7.9,0h-1.5
			c-0.5,0-0.9,0.2-1,0.7l-0.5,2.8c-0.1,0.5,0.2,0.7,0.8,0.7L124.9,21.4z"/>
	</g>
	<g>
		<g>
			<path class="st0" d="M201.5,11.3c-0.3-2.9-2.2-4.1-5-4.1c-2.2,0-4.5,0.8-4.5,3.4c0,2.5,3.2,2.8,6.4,3.6c3.2,0.7,6.4,1.9,6.4,5.8
				c0,4.3-4.2,6-7.8,6c-4.5,0-8.3-2.2-8.3-7.1h2.5c0,3.4,2.8,4.8,5.8,4.8c2.4,0,5.1-0.8,5.1-3.6c0-2.7-3.2-3.2-6.4-3.9
				c-3.2-0.7-6.4-1.6-6.4-5.3c0-4.1,3.6-5.9,7.3-5.9c4.1,0,7.2,1.9,7.4,6.3H201.5z"/>
			<path class="st0" d="M211,11h2.9v2.1H211v9c0,1.1,0.3,1.3,1.8,1.3h1.1v2.1h-1.8c-2.5,0-3.5-0.5-3.5-3.2v-9.2h-2.5V11h2.5V6.7h2.4
				V11z"/>
			<path class="st0" d="M228.9,20.9c-0.6,3.2-3,4.9-6.2,4.9c-4.6,0-6.8-3.2-7-7.6c0-4.4,2.9-7.5,6.8-7.5c5.1,0,6.7,4.8,6.6,8.3
				h-10.9c-0.1,2.5,1.3,4.8,4.5,4.8c2,0,3.3-1,3.8-2.8H228.9z M226.6,16.9c-0.1-2.3-1.8-4.1-4.2-4.1c-2.5,0-4,1.9-4.2,4.1H226.6z"/>
			<path class="st0" d="M231.7,5.5h2.4v20h-2.4V5.5z"/>
			<path class="st0" d="M238,5.5h2.4v20H238V5.5z"/>
			<path class="st0" d="M256.9,25.5c-0.4,0.3-1,0.4-1.7,0.4c-1.2,0-2-0.7-2-2.2c-1.3,1.5-3.1,2.2-5.1,2.2c-2.6,0-4.8-1.2-4.8-4.1
				c0-3.3,2.4-4,4.9-4.5c2.6-0.5,4.9-0.3,4.9-2.1c0-2.1-1.7-2.4-3.2-2.4c-2,0-3.5,0.6-3.6,2.8h-2.4c0.1-3.6,2.9-4.9,6.1-4.9
				c2.6,0,5.4,0.6,5.4,4v7.5c0,1.1,0,1.6,0.8,1.6c0.2,0,0.4,0,0.7-0.1V25.5z M253,18c-0.9,0.7-2.7,0.7-4.3,1
				c-1.6,0.3-2.9,0.8-2.9,2.6c0,1.6,1.3,2.1,2.8,2.1c3.1,0,4.4-2,4.4-3.3V18z"/>
			<path class="st0" d="M259.1,11h2.2v2.3h0.1c1-1.8,2.6-2.6,4.7-2.6c3.8,0,5,2.2,5,5.3v9.5h-2.4v-9.8c0-1.8-1.1-2.9-2.9-2.9
				c-2.9,0-4.3,1.9-4.3,4.5v8.2h-2.4V11z"/>
			<path class="st0" d="M278,11h2.9v2.1H278v9c0,1.1,0.3,1.3,1.8,1.3h1.1v2.1h-1.8c-2.5,0-3.5-0.5-3.5-3.2v-9.2h-2.5V11h2.5V6.7h2.4
				V11z"/>
		</g>
	</g>
	<g>
		<path class="st0" d="M178.2,5.4c2.1,0,3.9,1.7,3.9,3.9c0,2.3-1.8,4-3.9,4c-2.2,0-4-1.7-4-4C174.3,7.1,176.1,5.4,178.2,5.4z
			 M178.2,12.6c1.8,0,3.2-1.5,3.2-3.4c0-1.9-1.4-3.3-3.2-3.3c-1.8,0-3.2,1.5-3.2,3.3C175,11.2,176.4,12.6,178.2,12.6z M176.7,7h1.8
			c1.1,0,1.6,0.4,1.6,1.3c0,0.8-0.5,1.2-1.2,1.3l1.3,2h-0.8l-1.3-2h-0.8v2h-0.7V7z M177.4,9h0.7c0.6,0,1.2,0,1.2-0.8
			c0-0.6-0.5-0.7-1-0.7h-0.9V9z"/>
	</g>
	<g>
		<path class="st1" d="M127.5,40.9c-0.4-1.9-1.9-2.8-3.7-2.8c-3.1,0-4.5,2.6-4.5,5.3c0,3,1.3,5.5,4.5,5.5c2.3,0,3.6-1.6,3.8-3.8h1.7
			c-0.3,3.3-2.4,5.3-5.7,5.3c-4.1,0-6.1-3-6.1-6.8c0-3.8,2.2-6.9,6.2-6.9c2.7,0,5,1.5,5.4,4.3H127.5z"/>
		<path class="st1" d="M134.5,38.4h-4.4V37h10.5v1.5h-4.4v11.7h-1.7V38.4z"/>
		<path class="st1" d="M147.3,37h1.7v13.1h-1.7V37z"/>
		<path class="st1" d="M151.7,40.6h1.5v1.5h0c0.7-1.2,1.7-1.7,3.1-1.7c2.5,0,3.3,1.4,3.3,3.5v6.3H158v-6.4c0-1.2-0.7-1.9-1.9-1.9
			c-1.9,0-2.8,1.3-2.8,3v5.4h-1.6V40.6z"/>
		<path class="st1" d="M163.6,51.3c0,1.7-0.9,2.4-2.3,2.4c-0.3,0-0.5,0-0.8-0.1v-1.3c0.2,0,0.4,0,0.6,0c0.7,0,0.9-0.3,0.9-1.3V40.6
			h1.6V51.3z M163.6,38.9H162V37h1.6V38.9z"/>
		<path class="st1" d="M174.2,47.1c-0.4,2.1-1.9,3.2-4.1,3.2c-3,0-4.5-2.1-4.6-5c0-2.9,1.9-5,4.5-5c3.4,0,4.4,3.1,4.3,5.4h-7.1
			c-0.1,1.7,0.9,3.1,3,3.1c1.3,0,2.2-0.6,2.5-1.9H174.2z M172.6,44.4c-0.1-1.5-1.2-2.7-2.7-2.7c-1.6,0-2.6,1.2-2.7,2.7H172.6z"/>
		<path class="st1" d="M182.4,43.7c-0.2-1.2-1.1-1.9-2.4-1.9c-2.3,0-3,1.8-3,3.7c0,1.7,0.8,3.5,2.8,3.5c1.5,0,2.4-0.9,2.6-2.3h1.6
			c-0.3,2.3-1.8,3.7-4.2,3.7c-2.9,0-4.5-2-4.5-4.9c0-2.9,1.5-5.1,4.5-5.1c2.2,0,3.9,1,4.1,3.3H182.4z"/>
		<path class="st1" d="M188,40.6h1.9V42H188v5.9c0,0.7,0.2,0.8,1.2,0.8h0.7v1.4h-1.2c-1.6,0-2.3-0.3-2.3-2.1V42h-1.6v-1.4h1.6v-2.9
			h1.6V40.6z"/>
		<path class="st1" d="M193.3,38.9h-1.6V37h1.6V38.9z M191.7,40.6h1.6v9.5h-1.6V40.6z"/>
		<path class="st1" d="M199.8,40.4c3,0,4.6,2.2,4.6,5c0,2.8-1.6,5-4.6,5c-3,0-4.6-2.2-4.6-5C195.2,42.6,196.8,40.4,199.8,40.4z
			 M199.8,49c1.6,0,3-1.3,3-3.6c0-2.3-1.3-3.6-3-3.6c-1.6,0-3,1.3-3,3.6C196.8,47.7,198.2,49,199.8,49z"/>
		<path class="st1" d="M206.3,40.6h1.5v1.5h0c0.7-1.2,1.7-1.7,3.1-1.7c2.5,0,3.3,1.4,3.3,3.5v6.3h-1.6v-6.4c0-1.2-0.7-1.9-1.9-1.9
			c-1.9,0-2.8,1.3-2.8,3v5.4h-1.6V40.6z"/>
		<path class="st1" d="M229.5,40.8c-0.2-1.9-1.5-2.7-3.3-2.7c-1.5,0-2.9,0.5-2.9,2.2c0,1.6,2.1,1.9,4.2,2.3c2.1,0.5,4.2,1.2,4.2,3.8
			c0,2.8-2.7,3.9-5.1,3.9c-2.9,0-5.4-1.4-5.4-4.6h1.7c0,2.2,1.8,3.2,3.8,3.2c1.6,0,3.3-0.5,3.3-2.4c0-1.8-2.1-2.1-4.2-2.6
			c-2.1-0.5-4.2-1.1-4.2-3.5c0-2.7,2.4-3.8,4.8-3.8c2.7,0,4.7,1.3,4.8,4.2H229.5z"/>
		<path class="st1" d="M237.3,51.4c-0.7,1.9-1.4,2.5-2.8,2.5c-0.4,0-0.7,0-1.1-0.2v-1.4c0.3,0.1,0.6,0.2,0.9,0.2
			c0.6,0,1-0.3,1.3-0.9l0.6-1.6l-3.8-9.5h1.8l2.8,7.8h0l2.7-7.8h1.7L237.3,51.4z"/>
		<path class="st1" d="M243.7,47.1c0.1,1.4,1.3,1.8,2.6,1.8c1,0,2.3-0.2,2.3-1.4c0-1.2-1.5-1.4-3.1-1.8c-1.5-0.3-3.1-0.9-3.1-2.7
			c0-1.9,1.9-2.7,3.6-2.7c2.1,0,3.8,0.7,3.9,3h-1.6c-0.1-1.2-1.2-1.6-2.2-1.6c-0.9,0-2,0.3-2,1.2c0,1.1,1.7,1.3,3.1,1.7
			c1.6,0.3,3.1,0.9,3.1,2.7c0,2.3-2.1,3-4,3c-2.1,0-3.9-0.9-4-3.2H243.7z"/>
		<path class="st1" d="M254.1,40.6h1.9V42h-1.9v5.9c0,0.7,0.2,0.8,1.2,0.8h0.7v1.4h-1.2c-1.6,0-2.3-0.3-2.3-2.1V42h-1.6v-1.4h1.6
			v-2.9h1.6V40.6z"/>
		<path class="st1" d="M265.9,47.1c-0.4,2.1-1.9,3.2-4.1,3.2c-3,0-4.5-2.1-4.6-5c0-2.9,1.9-5,4.5-5c3.4,0,4.4,3.1,4.3,5.4h-7.1
			c-0.1,1.7,0.9,3.1,3,3.1c1.3,0,2.2-0.6,2.5-1.9H265.9z M264.4,44.4c-0.1-1.5-1.2-2.7-2.7-2.7c-1.6,0-2.6,1.2-2.7,2.7H264.4z"/>
		<path class="st1" d="M267.6,40.6h1.5V42h0c0.7-1.1,1.8-1.6,3.1-1.6c1.2,0,2.2,0.5,2.6,1.6c0.6-1,1.8-1.6,3-1.6
			c1.9,0,3.2,0.8,3.2,2.8v7h-1.6v-6.2c0-1.2-0.3-2.1-1.8-2.1c-1.5,0-2.5,1-2.5,2.4v5.9h-1.6v-6.2c0-1.2-0.4-2.1-1.8-2.1
			c-1.9,0-2.5,1.7-2.5,2.4v5.9h-1.6V40.6z"/>
	</g>
</g>
</svg>
